<svg viewBox="0 0 72 72" xmlns="http://www.w3.org/2000/svg"><g style="fill:none;stroke:#000;stroke-linecap:round;stroke-linejoin:round;stroke-miterlimit:10;stroke-width:2"><path d="m47.9472 46.2123c6.9757 5.7074 0 6.3416 0 6.3416-17.1222 1.9025-21.5613-16.488-21.5613-16.488"/><path d="m34.0168 54.4596c10.7957 2.9088 29.2906 3.308 25.3452-.6374-4.4391-4.4391-5.0732-6.3416-5.7074-10.1465s-5.7074-11.4148-14.5856-13.3173 0-13.9514-6.3416-19.6588-13.9514-.6342-13.9514 2.5366-3.1708 5.0732-3.1708 5.0732c-1.2683.6342-9.5123 3.8049 1.2683 3.8049s10.1465 2.5366 6.9757 4.4391c0 0-10.8078 4.5851-7.8493 14.4465 3 10 17.9958 13.4564 17.9958 13.4564s-.6342 1.2683 0 2.5366-.3658 1.6342-1.6342 3.5366c-1.2683 1.9025-4.0732.2683-6.6099.9025-1.9455.4864-3.1708 2.5366.6342 2.5366s10.7806 0 10.7806 0 3.8049.6342-.6342-3.8049c0 0 .6342-1.2683.6342-1.9025s1.374-1.2683 1.0041-2.5366"/><path d="m34.6024 63.9305h4.1493 4.432s3.0287.5048-.5048-3.0287c0 0 .5048-1.0096.5048-1.5143s1.0937-1.0096.7992-2.0191"/><path d="m40.6597 56.3588s-.5048 1.0096 0 2.0191c.5048 1.0096.5048.5048-.5048 2.0191-.408.612-1.2252.8826-2.3542 1.035"/></g></svg>